<svg xmlns="http://www.w3.org/2000/svg" viewBox="0 0 512 512">
  <defs>
    <linearGradient id="shieldGrad" x1="0%" y1="0%" x2="100%" y2="100%">
      <stop offset="0%" style="stop-color:#3b82f6"/>
      <stop offset="50%" style="stop-color:#22d3ee"/>
      <stop offset="100%" style="stop-color:#3b82f6"/>
    </linearGradient>
    <linearGradient id="innerGrad" x1="0%" y1="0%" x2="100%" y2="100%">
      <stop offset="0%" style="stop-color:#0f172a"/>
      <stop offset="100%" style="stop-color:#1e293b"/>
    </linearGradient>
    <filter id="glow">
      <feGaussianBlur stdDeviation="8" result="coloredBlur"/>
      <feMerge>
        <feMergeNode in="coloredBlur"/>
        <feMergeNode in="SourceGraphic"/>
      </feMerge>
    </filter>
  </defs>
  <!-- Outer Shield -->
  <path d="M256 20 L480 100 L480 280 C480 380 380 460 256 500 C132 460 32 380 32 280 L32 100 Z"
        fill="url(#shieldGrad)" filter="url(#glow)"/>
  <!-- Inner Shield -->
  <path d="M256 50 L450 120 L450 270 C450 355 360 425 256 460 C152 425 62 355 62 270 L62 120 Z"
        fill="url(#innerGrad)"/>
  <!-- AI Symbol - Stylized "A" -->
  <g fill="url(#shieldGrad)">
    <!-- Central A shape -->
    <polygon points="256,140 320,340 290,340 270,280 242,280 222,340 192,340"/>
    <rect x="234" y="240" width="44" height="20" rx="2"/>
  </g>
  <!-- Security Lock Icon -->
  <g fill="#22d3ee" transform="translate(256, 380) scale(0.6)">
    <rect x="-30" y="-10" width="60" height="45" rx="8"/>
    <path d="M-18,-10 L-18,-25 A18,18 0 0,1 18,-25 L18,-10" fill="none" stroke="#22d3ee" stroke-width="8"/>
    <circle cx="0" cy="12" r="6" fill="#0f172a"/>
  </g>
</svg>
